<svg id="Layer_1" data-name="Layer 1" xmlns="http://www.w3.org/2000/svg" viewBox="0 0 250 250"><defs><style>.cls-1{fill:none;opacity:0;}.cls-2{isolation:isolate;}.cls-3{fill:#04d9ff;}</style></defs><rect class="cls-1" width="250" height="250"/><g class="cls-2"><path class="cls-3" d="M158.87,33.11,108.19,166.28C96,198.71,83.64,219.84,71.45,229.86S48.12,243.34,38,240.61c-6.8-2-12.19-6.38-16.2-13.48C18,220,17.29,211.46,19.91,201.26c1.56-6.19,3.83-10.75,6.61-13.66s5.57-4,8.36-3.28c2.61.73,4.35,2.91,5.4,6.56a25.66,25.66,0,0,1-.17,12c-1.4,5.65-3.49,9.47-6.27,11.29s-4.36,3.47-4.71,5.11c-.52,2.36,0,4.73,1.92,7.28a13.93,13.93,0,0,0,8,5.1c6.27,1.83,11.84.37,16.72-4a60,60,0,0,0,12.88-18.22c3.66-7.65,8-18,12.89-31.15L138.84,27.64l-16.37-4.55L119.16,20l42.67,5.29-4,5.46Z"/></g><path class="cls-3" d="M238.13,59.73c0,21.15-11.33,38.1-34.17,50.5a112.22,112.22,0,0,1-32.57,12.21c12,3.1,20.71,7.11,26.38,12,7.61,6.92,11.5,16,11.5,27.52a60.22,60.22,0,0,1-9.56,32.45,69.64,69.64,0,0,1-25.66,24.43c-13.1,7.48-37.36,11.3-72.94,11.12H94c-4.07,0-16.64-1.09-20.36-1.09l-9.74-1.1c-11.5,0,20.54-13.3,18.77-13.3l-4.07,4.92c-2.13,0-14.52,9.84-14.52,8.38,0-2.18.53-4.92,3-4.74h0c7.43-.54-7.79,1.83-6.2,1.46a6.85,6.85,0,0,0,3.72-4,42.26,42.26,0,0,1,2.12-5.47c1.07-2.37,4.08-10.21,9.21-23.33l51.69-132.9c6.2-16.22,9.39-25.7,9.39-28.44,0-3.46-7.26-5.1-21.78-5.1-3,0-4.42-.73-4.42-2.37,0-1.46,1.59-2.19,4.78-2.37L130.32,20h53.11c18.41,0,31.69,2.92,39.65,8.75C233,36.22,238.13,46.43,238.13,59.73Zm-58.77,99q0-34.45-34-34.45a138.72,138.72,0,0,0-15.23.91L97.75,211A56.21,56.21,0,0,0,94.2,222c0,2.92,1.6,4.38,4.78,4.38,20.72,0,36.83-3.29,48.16-10C168.56,203.2,179.36,184.06,179.36,158.72Zm30.8-105.91c0-17.87-10.27-27-31-27-3.72,0-7.44.18-11,.36-1.77,3.65-3.89,8.57-6.19,14.77l-28.68,76.56a85.77,85.77,0,0,0,9.73.55c24.26,0,41.78-7.11,52.76-21.15C205.38,84.89,210.16,70.12,210.16,52.81Z"/></svg>