<?xml version="1.0" encoding="utf-8"?>
<!-- Generator: Adobe Illustrator 26.0.1, SVG Export Plug-In . SVG Version: 6.00 Build 0)  -->
<svg version="1.1" id="Layer_1" xmlns="http://www.w3.org/2000/svg" xmlns:xlink="http://www.w3.org/1999/xlink" x="0px" y="0px"
	 viewBox="0 0 250 250" style="enable-background:new 0 0 250 250;" xml:space="preserve">
<style type="text/css">
	.st0{fill:#2C373D;}
	.st1{enable-background:new    ;}
	.st2{fill:#FFFFFF;}
</style>
<rect class="st0" width="250" height="250"/>
<g class="st1">
	<path class="st2" d="M136.5,71.3l-29.1,73.1c-7,17.8-14.1,29.4-21.1,34.9c-7,5.5-13.4,7.4-19.2,5.9c-3.9-1.1-7-3.5-9.3-7.4
		c-2.2-3.9-2.6-8.6-1.1-14.2c0.9-3.4,2.2-5.9,3.8-7.5c1.6-1.6,3.2-2.2,4.8-1.8c1.5,0.4,2.5,1.6,3.1,3.6c0.5,2,0.5,4.2-0.1,6.6
		c-0.8,3.1-2,5.2-3.6,6.2c-1.6,1-2.5,1.9-2.7,2.8c-0.3,1.3,0,2.6,1.1,4c1.1,1.4,2.6,2.3,4.6,2.8c3.6,1,6.8,0.2,9.6-2.2
		c2.8-2.5,5.3-5.8,7.4-10c2.1-4.2,4.6-9.9,7.4-17.1L125,68.3l-9.4-2.5l-1.9-1.7l24.5,2.9l-2.3,3L136.5,71.3z"/>
</g>
<path class="st2" d="M179.7,85.6c0,11.6-6.4,20.9-19.3,27.7c-5.8,3.2-12,5.4-18.4,6.7c6.8,1.7,11.7,3.9,14.9,6.6
	c4.3,3.8,6.5,8.8,6.5,15.1c0,6.3-1.9,12.5-5.4,17.8c-3.6,5.6-8.6,10.3-14.5,13.4c-7.4,4.1-21.1,6.2-41.2,6.1h-4
	c-2.3,0-9.4-0.6-11.5-0.6l-5.5-0.6c-6.5,0,11.6-7.3,10.6-7.3l-2.3,2.7c-1.2,0-8.2,5.4-8.2,4.6c0-1.2,0.3-2.7,1.7-2.6l0,0
	c4.2-0.3-4.4,1-3.5,0.8c1-0.4,1.7-1.2,2.1-2.2c0.2-0.7,0.6-1.7,1.2-3s2.3-5.6,5.2-12.8l29.2-72.9c3.5-8.9,5.3-14.1,5.3-15.6
	c0-1.9-4.1-2.8-12.3-2.8c-1.7,0-2.5-0.4-2.5-1.3c0-0.8,0.9-1.2,2.7-1.3l8.3-0.3h30c10.4,0,17.9,1.6,22.4,4.8
	C176.8,72.7,179.7,78.3,179.7,85.6z M146.5,139.9c0-12.6-6.4-18.9-19.2-18.9c-2.9,0-5.8,0.2-8.6,0.5l-18.3,47.1
	c-0.9,1.9-1.5,3.9-2,6c0,1.6,0.9,2.4,2.7,2.4c11.7,0,20.8-1.8,27.2-5.5C140.4,164.3,146.5,153.8,146.5,139.9z M163.9,81.8
	c0-9.8-5.8-14.8-17.5-14.8c-2.1,0-4.2,0.1-6.2,0.2c-1,2-2.2,4.7-3.5,8.1l-16.2,42c1.8,0.2,3.7,0.3,5.5,0.3
	c13.7,0,23.6-3.9,29.8-11.6C161.2,99.4,163.9,91.3,163.9,81.8z"/>
</svg>
