<svg id="Layer_1" data-name="Layer 1" xmlns="http://www.w3.org/2000/svg" viewBox="0 0 250 250"><defs><style>.cls-1{fill:#2c373d;}.cls-2{font-size:166.01px;font-family:BodoniSvtyTwoITCTT-BookIta, "Bodoni 72";font-style:italic;}.cls-2,.cls-3{fill:#fff;}</style></defs><rect class="cls-1" x="10.46" y="21.45" width="226.28" height="207.33"/><text class="cls-2" transform="translate(60.02 179.32)">J</text><text class="cls-2" transform="translate(60.02 179.32)">J</text><path class="cls-3" d="M179.68,85.6q0,17.43-19.26,27.73A63.33,63.33,0,0,1,142,120q10.13,2.49,14.94,6.64,6.48,5.64,6.48,15.1a32.56,32.56,0,0,1-5.4,17.77,39.16,39.16,0,0,1-14.52,13.44q-11.13,6.15-41.17,6.15h-4c-2.32,0-9.43-.56-11.53-.56l-5.47-.65c-6.53,0,11.55-7.29,10.55-7.29l-2.35,2.74c-1.21,0-8.2,5.44-8.2,4.55,0-1.21.26-2.71,1.69-2.6h0c4.21-.33-4.36,1-3.53.82a3.5,3.5,0,0,0,2.07-2.16c.23-.67.64-1.67,1.25-3s2.35-5.59,5.23-12.8L117.26,85.3q5.31-13.3,5.31-15.63,0-2.82-12.29-2.83-2.49,0-2.49-1.32c0-.78.89-1.22,2.66-1.33l8.3-.33H148.8q15.6,0,22.41,4.81Q179.67,74.64,179.68,85.6Zm-33.21,54.29q0-18.93-19.25-18.93a73.34,73.34,0,0,0-8.63.51l-18.27,47.06a34.18,34.18,0,0,0-2,6c0,1.57.89,2.35,2.66,2.35q17.6,0,27.22-5.53Q146.48,160.83,146.47,139.89Zm17.44-58.11q0-14.76-17.5-14.77-3.16,0-6.17.17-1.5,3-3.5,8.13l-16.16,42a42.13,42.13,0,0,0,5.5.33q20.49,0,29.82-11.62Q163.91,96.06,163.91,81.78Z"/></svg>